<svg width="500" height="500" viewBox="0 0 500 500" fill="none" xmlns="http://www.w3.org/2000/svg">
<g clip-path="url(#clip0_7_17)">
<rect width="500" height="500" fill="white"/>
<rect x="46" width="408" height="501" rx="50" fill="#305CFD"/>
<path d="M153.764 122.245C147.549 122.245 142.306 124.381 138.034 128.653C133.761 132.925 131.625 138.363 131.625 144.966H105.408C105.408 123.992 115.313 108.845 135.121 99.5236C140.947 97.1932 147.161 96.028 153.764 96.028H368.157V122.245H188.136V232.937H312.228V259.736H188.136V387.906H368.157V414.705H159.589V122.245H153.764Z" fill="white"/>
<path d="M138.034 128.653L134.846 125.466L138.034 128.653ZM131.625 144.966V149.473H136.133V144.966H131.625ZM105.408 144.966H100.901V149.473H105.408V144.966ZM135.121 99.5236L133.447 95.3385L133.322 95.3882L133.201 95.4451L135.121 99.5236ZM368.157 96.028H372.664V91.5206H368.157V96.028ZM368.157 122.245V126.752H372.664V122.245H368.157ZM188.136 122.245V117.737H183.629V122.245H188.136ZM188.136 232.937H183.629V237.444H188.136V232.937ZM312.228 232.937H316.736V228.429H312.228V232.937ZM312.228 259.736V264.244H316.736V259.736H312.228ZM188.136 259.736V255.229H183.629V259.736H188.136ZM188.136 387.906H183.629V392.414H188.136V387.906ZM368.157 387.906H372.664V383.399H368.157V387.906ZM368.157 414.705V419.213H372.664V414.705H368.157ZM159.589 414.705H155.082V419.213H159.589V414.705ZM159.589 122.245H164.097V117.737H159.589V122.245ZM153.764 117.737C146.392 117.737 139.991 120.322 134.846 125.466L141.221 131.84C144.621 128.44 148.707 126.752 153.764 126.752V117.737ZM134.846 125.466C129.646 130.666 127.118 137.29 127.118 144.966H136.133C136.133 139.436 137.876 135.185 141.221 131.84L134.846 125.466ZM131.625 140.458H105.408V149.473H131.625V140.458ZM109.916 144.966C109.916 135.213 112.209 127.071 116.609 120.342C121.017 113.6 127.732 107.982 137.04 103.602L133.201 95.4451C122.701 100.386 114.56 107.003 109.064 115.408C103.56 123.826 100.901 133.745 100.901 144.966H109.916ZM136.795 103.709C142.061 101.602 147.704 100.535 153.764 100.535V91.5206C146.618 91.5206 139.832 92.7842 133.447 95.3385L136.795 103.709ZM153.764 100.535H368.157V91.5206H153.764V100.535ZM363.65 96.028V122.245H372.664V96.028H363.65ZM368.157 117.737H188.136V126.752H368.157V117.737ZM183.629 122.245V232.937H192.644V122.245H183.629ZM188.136 237.444H312.228V228.429H188.136V237.444ZM307.721 232.937V259.736H316.736V232.937H307.721ZM312.228 255.229H188.136V264.244H312.228V255.229ZM183.629 259.736V387.906H192.644V259.736H183.629ZM188.136 392.414H368.157V383.399H188.136V392.414ZM363.65 387.906V414.705H372.664V387.906H363.65ZM368.157 410.198H159.589V419.213H368.157V410.198ZM164.097 414.705V122.245H155.082V414.705H164.097ZM159.589 117.737H153.764V126.752H159.589V117.737Z" fill="white"/>
</g>
<defs>
<clipPath id="clip0_7_17">
<rect width="500" height="500" fill="white"/>
</clipPath>
</defs>
</svg>
