<svg width="408" height="500" viewBox="0 0 408 500" fill="none" xmlns="http://www.w3.org/2000/svg">
<g clip-path="url(#clip0_7_17)">
<rect width="408" height="501" rx="50" fill="#305CFD"/>
<path d="M107.764 122.245C101.549 122.245 96.3059 124.381 92.0336 128.653C87.7613 132.925 85.6251 138.363 85.6251 144.966H59.4085C59.4085 123.992 69.3125 108.845 89.1206 99.5236C94.9465 97.1932 101.161 96.028 107.764 96.028H322.157V122.245H142.136V232.937H266.228V259.736H142.136V387.906H322.157V414.705H113.589V122.245H107.764Z" fill="white"/>
<path d="M92.0336 128.653L88.8463 125.466L92.0336 128.653ZM85.6251 144.966V149.473H90.1325V144.966H85.6251ZM59.4085 144.966H54.901V149.473H59.4085V144.966ZM89.1206 99.5236L87.4466 95.3385L87.3224 95.3882L87.2014 95.4452L89.1206 99.5236ZM322.157 96.028H326.664V91.5205H322.157V96.028ZM322.157 122.245V126.752H326.664V122.245H322.157ZM142.136 122.245V117.737H137.629V122.245H142.136ZM142.136 232.937H137.629V237.444H142.136V232.937ZM266.228 232.937H270.736V228.429H266.228V232.937ZM266.228 259.736V264.244H270.736V259.736H266.228ZM142.136 259.736V255.229H137.629V259.736H142.136ZM142.136 387.906H137.629V392.414H142.136V387.906ZM322.157 387.906H326.664V383.399H322.157V387.906ZM322.157 414.705V419.213H326.664V414.705H322.157ZM113.589 414.705H109.082V419.213H113.589V414.705ZM113.589 122.245H118.097V117.737H113.589V122.245ZM107.764 117.737C100.392 117.737 93.9906 120.322 88.8463 125.466L95.2208 131.84C98.6213 128.44 102.707 126.752 107.764 126.752V117.737ZM88.8463 125.466C83.6461 130.666 81.1176 137.29 81.1176 144.966H90.1325C90.1325 139.436 91.8764 135.185 95.2208 131.84L88.8463 125.466ZM85.6251 140.458H59.4085V149.473H85.6251V140.458ZM63.916 144.966C63.916 135.213 66.2091 127.071 70.6091 120.342C75.017 113.6 81.7319 107.982 91.0399 103.602L87.2014 95.4452C76.7012 100.386 68.5601 107.003 63.0639 115.408C57.56 123.826 54.901 133.745 54.901 144.966H63.916ZM90.7947 103.709C96.0606 101.602 101.704 100.535 107.764 100.535V91.5205C100.618 91.5205 93.8324 92.7842 87.4466 95.3385L90.7947 103.709ZM107.764 100.535H322.157V91.5205H107.764V100.535ZM317.65 96.028V122.245H326.664V96.028H317.65ZM322.157 117.737H142.136V126.752H322.157V117.737ZM137.629 122.245V232.937H146.644V122.245H137.629ZM142.136 237.444H266.228V228.429H142.136V237.444ZM261.721 232.937V259.736H270.736V232.937H261.721ZM266.228 255.229H142.136V264.244H266.228V255.229ZM137.629 259.736V387.906H146.644V259.736H137.629ZM142.136 392.414H322.157V383.399H142.136V392.414ZM317.65 387.906V414.705H326.664V387.906H317.65ZM322.157 410.198H113.589V419.213H322.157V410.198ZM118.097 414.705V122.245H109.082V414.705H118.097ZM113.589 117.737H107.764V126.752H113.589V117.737Z" fill="white"/>
</g>
<defs>
<clipPath id="clip0_7_17">
<rect width="408" height="500" fill="white"/>
</clipPath>
</defs>
</svg>
